<svg xmlns="http://www.w3.org/2000/svg" viewBox="0 0 32 32" width="32" height="32">
  <rect width="32" height="32" rx="6" fill="#111111"/>
  <!-- Main tower -->
  <rect x="12" y="6" width="8" height="20" fill="#C9A84C"/>
  <!-- Tower windows -->
  <rect x="14" y="8" width="2" height="2" fill="#111111" opacity="0.6"/>
  <rect x="17" y="8" width="2" height="2" fill="#111111" opacity="0.6"/>
  <rect x="14" y="12" width="2" height="2" fill="#111111" opacity="0.6"/>
  <rect x="17" y="12" width="2" height="2" fill="#111111" opacity="0.6"/>
  <rect x="14" y="16" width="2" height="2" fill="#111111" opacity="0.6"/>
  <rect x="17" y="16" width="2" height="2" fill="#111111" opacity="0.6"/>
  <rect x="14" y="20" width="2" height="2" fill="#111111" opacity="0.6"/>
  <rect x="17" y="20" width="2" height="2" fill="#111111" opacity="0.6"/>
  <!-- Left building -->
  <rect x="5" y="13" width="6" height="13" fill="#C9A84C" opacity="0.6"/>
  <rect x="6" y="15" width="2" height="2" fill="#111111" opacity="0.5"/>
  <rect x="6" y="19" width="2" height="2" fill="#111111" opacity="0.5"/>
  <!-- Right building -->
  <rect x="21" y="16" width="6" height="10" fill="#C9A84C" opacity="0.6"/>
  <rect x="22" y="18" width="2" height="2" fill="#111111" opacity="0.5"/>
  <rect x="22" y="22" width="2" height="2" fill="#111111" opacity="0.5"/>
  <!-- Ground line -->
  <rect x="3" y="26" width="26" height="1" fill="#C9A84C" opacity="0.4"/>
</svg>
